<svg class="fade" viewBox="0 0 155 115" fill="none" xmlns="http://www.w3.org/2000/svg">
  <g clip-path="url(#clip0)">
    <path d="M45.455 110.342L7.055 88.165C3.802 86.286 4.212 83.006 7.979 80.837L100.718 27.296C104.476 25.14 110.155 24.896 113.408 26.769L151.808 48.946C155.061 50.822 154.654 54.102 150.884 56.27L58.145 109.815C54.387 111.983 48.708 112.221 45.455 110.342Z" fill="#B1B4C4" />
    <path d="M4.862 84.946V81.41L9.008 82.975L4.862 84.946Z" fill="#B1B4C4" />
    <path d="M154.003 52.001V48.601L150.703 50.726L154.003 52.001Z" fill="#B1B4C4" />
    <path d="M45.455 107.351L7.055 85.174C3.802 83.298 4.212 80.018 7.979 77.85L100.718 24.306C104.476 22.15 110.155 21.9 113.408 23.779L151.808 45.956C155.061 47.835 154.654 51.115 150.884 53.284L58.145 106.824C54.387 108.993 48.708 109.227 45.455 107.351Z" fill="#616E84" />
    <path d="M11.6927 89.721C11.8902 89.6069 11.8912 89.2388 11.6948 88.8987C11.4985 88.5587 11.1792 88.3754 10.9817 88.4895C10.7841 88.6035 10.7832 88.9717 10.9795 89.3117C11.1758 89.6518 11.4951 89.835 11.6927 89.721Z" fill="#757B89" />
    <path d="M13.5397 90.788C13.7372 90.6739 13.7382 90.3058 13.5418 89.9657C13.3455 89.6257 13.0262 89.4425 12.8287 89.5565C12.6311 89.6705 12.6302 90.0387 12.8265 90.3787C13.0228 90.7188 13.3421 90.902 13.5397 90.788Z" fill="#757B89" />
    <path d="M15.3917 91.856C15.5892 91.7419 15.5902 91.3738 15.3938 91.0337C15.1975 90.6937 14.8782 90.5104 14.6807 90.6245C14.4831 90.7385 14.4822 91.1067 14.6785 91.4467C14.8748 91.7868 15.1941 91.97 15.3917 91.856Z" fill="#757B89" />
    <path d="M17.2387 92.923C17.4362 92.809 17.4372 92.4408 17.2408 92.1008C17.0445 91.7607 16.7252 91.5775 16.5277 91.6915C16.3301 91.8056 16.3292 92.1737 16.5255 92.5138C16.7218 92.8538 17.0411 93.037 17.2387 92.923Z" fill="#757B89" />
    <path d="M33.2375 102.492C33.4357 102.378 33.4372 102.008 33.2407 101.666C33.0442 101.325 32.7242 101.14 32.5259 101.254C32.3277 101.368 32.3263 101.737 32.5228 102.079C32.7193 102.421 33.0393 102.606 33.2375 102.492Z" fill="#757B89" />
    <path d="M34.9547 103.152C35.1522 103.038 35.1532 102.67 34.9568 102.33C34.7605 101.99 34.4412 101.806 34.2437 101.921C34.0461 102.035 34.0452 102.403 34.2415 102.743C34.4378 103.083 34.7571 103.266 34.9547 103.152Z" fill="#757B89" />
    <path d="M36.8027 104.22C37.0002 104.106 37.0012 103.738 36.8048 103.398C36.6085 103.058 36.2892 102.874 36.0917 102.989C35.8941 103.103 35.8932 103.471 36.0895 103.811C36.2858 104.151 36.6051 104.334 36.8027 104.22Z" fill="#757B89" />
    <path d="M38.6497 105.287C38.8472 105.173 38.8482 104.805 38.6518 104.465C38.4555 104.125 38.1362 103.941 37.9387 104.055C37.7411 104.17 37.7402 104.538 37.9365 104.878C38.1328 105.218 38.4521 105.401 38.6497 105.287Z" fill="#757B89" />
    <path d="M27.356 99.126L22.28 96.197C22.1027 96.0702 21.9576 95.9035 21.8566 95.7103C21.7555 95.5172 21.7012 95.303 21.698 95.085C21.698 94.654 21.957 94.469 22.28 94.645L27.356 97.574C27.5333 97.7016 27.6782 97.8689 27.7793 98.0625C27.8803 98.2561 27.9347 98.4706 27.938 98.689C27.938 99.113 27.68 99.313 27.356 99.126Z" fill="#757B89" />
    <path d="M142.382 60.416L137.66 63.142C137.352 63.314 137.118 63.142 137.118 62.732C137.121 62.5296 137.172 62.3307 137.266 62.1515C137.36 61.9723 137.495 61.8176 137.66 61.7L142.382 58.974C142.69 58.802 142.921 58.974 142.921 59.384C142.918 59.5862 142.868 59.785 142.774 59.9642C142.681 60.1435 142.546 60.2982 142.382 60.416V60.416Z" fill="#757B89" />
    <path d="M135.15 64.591L130.428 67.317C130.12 67.489 129.886 67.317 129.886 66.907C129.889 66.7042 129.94 66.5049 130.034 66.3252C130.128 66.1455 130.263 65.9903 130.428 65.872L135.15 63.14C135.458 62.968 135.689 63.14 135.689 63.55C135.688 63.7537 135.638 63.9542 135.544 64.1351C135.451 64.316 135.315 64.4722 135.15 64.591V64.591Z" fill="#757B89" />
    <path d="M45.455 106.806L7.055 84.629C3.802 82.75 4.212 79.47 7.979 77.301L100.718 23.76C104.476 21.604 110.155 21.36 113.408 23.233L151.808 45.41C155.061 47.286 154.654 50.566 150.884 52.734L58.145 106.279C54.387 108.447 48.708 108.684 45.455 106.806Z" fill="#20232D" />
    <path d="M147.686 46.288L132.695 37.633L132.658 37.655C131.664 38.1592 130.566 38.422 129.451 38.422C128.337 38.422 127.239 38.1592 126.245 37.655C124.474 36.632 124.474 34.972 126.245 33.955L126.282 33.937L111.291 25.282C110.014 24.6336 108.601 24.2957 107.168 24.2957C105.736 24.2957 104.323 24.6336 103.046 25.282L12.711 77.431C10.435 78.743 10.435 80.875 12.711 82.19L49.102 103.202C50.3795 103.85 51.7919 104.188 53.2245 104.188C54.6571 104.188 56.0695 103.85 57.347 103.202L147.686 51.047C149.962 49.732 149.962 47.6 147.686 46.288Z" fill="white" />
    <path opacity="0.5" d="M147.686 51.046L57.35 103.201C56.1858 103.787 54.9109 104.12 53.6088 104.179C52.3067 104.237 51.007 104.02 49.795 103.54C49.5586 103.443 49.3291 103.329 49.108 103.201L12.714 82.189C12.2109 81.9188 11.7743 81.54 11.436 81.08C10.577 79.848 11.002 78.416 12.714 77.43L103.047 25.272C104.325 24.6251 105.737 24.288 107.169 24.288C108.602 24.288 110.014 24.6251 111.292 25.272L126.283 33.933L126.246 33.955C124.475 34.978 124.475 36.632 126.246 37.655C127.24 38.1592 128.338 38.422 129.452 38.422C130.567 38.422 131.665 38.1592 132.659 37.655L132.693 37.637L147.687 46.292C149.962 47.603 149.962 49.733 147.686 51.046Z" fill="url(#paint0_linear)" />
    <path d="M128.466 37.365C129.417 37.365 130.188 36.9195 130.188 36.37C130.188 35.8205 129.417 35.375 128.466 35.375C127.515 35.375 126.744 35.8205 126.744 36.37C126.744 36.9195 127.515 37.365 128.466 37.365Z" fill="#2B303F" />
    <path opacity="0.1" d="M127.958 36.652C127.894 36.6332 127.838 36.5943 127.798 36.5411C127.758 36.4878 127.737 36.423 127.737 36.3565C127.737 36.29 127.758 36.2252 127.798 36.172C127.838 36.1187 127.894 36.0798 127.958 36.061C128.116 35.982 128.291 35.9409 128.468 35.9409C128.645 35.9409 128.82 35.982 128.978 36.061C129.042 36.0798 129.098 36.1187 129.138 36.172C129.178 36.2252 129.199 36.29 129.199 36.3565C129.199 36.423 129.178 36.4878 129.138 36.5411C129.098 36.5943 129.042 36.6332 128.978 36.652C128.82 36.731 128.645 36.7721 128.468 36.7721C128.291 36.7721 128.116 36.731 127.958 36.652V36.652Z" fill="white" />
    <path d="M109.475 65.372L77.346 46.818C75.479 45.74 75.714 43.858 77.87 42.618L99.486 30.144C101.642 28.912 104.907 28.761 106.773 29.836L138.911 48.39C140.778 49.468 140.543 51.35 138.387 52.597L116.774 65.074C115.665 65.6896 114.427 66.0371 113.16 66.0888C111.892 66.1406 110.631 65.8951 109.475 65.372V65.372Z" fill="#E9EAF2" />
    <path d="M110.503 43.827L98.934 45.617L100.791 41.617L82.655 44.423L87.725 47.349L95.93 52.086L104.4 56.977L110.503 43.827Z" fill="#DADCE5" />
    <path d="M125.368 52.869C128.537 52.869 131.106 51.3853 131.106 49.555C131.106 47.7247 128.537 46.241 125.368 46.241C122.199 46.241 119.63 47.7247 119.63 49.555C119.63 51.3853 122.199 52.869 125.368 52.869Z" fill="#DADCE5" />
    <path d="M76.672 84.308L44.544 65.76C42.677 64.682 42.912 62.8 45.068 61.553L66.678 49.076C67.7856 48.4633 69.0205 48.1165 70.2852 48.063C71.5499 48.0096 72.8096 48.2509 73.965 48.768L106.093 67.316C107.96 68.397 107.725 70.279 105.569 71.523L83.954 84C82.8495 84.619 81.6148 84.9694 80.3498 85.0229C79.0847 85.0764 77.8249 84.8315 76.672 84.308Z" fill="#E9EAF2" />
    <path d="M72.766 90.469L51.153 102.943C50.7235 103.192 50.2681 103.393 49.795 103.543C49.5587 103.446 49.3291 103.332 49.108 103.204L12.713 82.19C12.2099 81.9198 11.7733 81.541 11.435 81.081C11.6908 80.8576 11.9686 80.6606 12.264 80.493L33.88 68.016C34.9876 67.4033 36.2225 67.0565 37.4872 67.003C38.7519 66.9496 40.0116 67.1909 41.167 67.708L73.305 86.261C75.153 87.339 74.922 89.221 72.766 90.469Z" fill="#E9EAF2" />
    <path d="M44.897 81.703L33.328 83.492L35.185 79.492L17.05 82.297L22.123 85.226L30.323 89.963L38.793 94.851L44.897 81.703Z" fill="#DADCE5" />
    <path d="M59.762 90.748C62.931 90.748 65.5 89.2643 65.5 87.434C65.5 85.6037 62.931 84.12 59.762 84.12C56.593 84.12 54.024 85.6037 54.024 87.434C54.024 89.2643 56.593 90.748 59.762 90.748Z" fill="#DADCE5" />
    <path d="M134.639 43.537L133.989 43.161L135.076 42.533L135.726 42.909L134.639 43.537Z" fill="#E9EAF2" />
    <path d="M135.51 44.04L134.857 43.664L136.379 42.786L137.032 43.162L135.51 44.04Z" fill="#E9EAF2" />
    <path d="M136.379 44.541L135.726 44.165L137.901 42.908L138.554 43.284L136.379 44.541Z" fill="#E9EAF2" />
    <path d="M137.248 45.044L136.598 44.668L139.641 42.909L140.294 43.285L137.248 45.044Z" fill="#E9EAF2" />
    <path d="M140.072 46.676L139.062 46.087L141.089 44.913L142.105 45.498L140.072 46.676Z" fill="#E9EAF2" />
    <path d="M141.427 47.455L140.414 46.87L142.444 45.7L143.457 46.285L141.427 47.455Z" fill="#E9EAF2" />
    <path d="M142.779 48.238L141.766 47.653L143.796 46.479L144.809 47.067L142.779 48.238Z" fill="#E9EAF2" />
    <path opacity="0.05" d="M75.101 70.709C80.3405 70.709 84.588 68.2573 84.588 65.233C84.588 62.2087 80.3405 59.757 75.101 59.757C69.8615 59.757 65.614 62.2087 65.614 65.233C65.614 68.2573 69.8615 70.709 75.101 70.709Z" fill="black" />
    <path class="hover" d="M93.735 18.807L61.952 0.458996C61.6298 0.23294 61.2582 0.087064 60.8683 0.0334939C60.4783 -0.0200762 60.0812 0.0202074 59.71 0.150996V0.150996C59.6274 0.188271 59.5482 0.232427 59.473 0.282996L56.155 2.131L58.57 5.519V29.5C58.6331 30.6735 58.973 31.8155 59.5618 32.8325C60.1506 33.8496 60.9717 34.7129 61.958 35.352L74.408 42.538L75.923 46.447L74.335 53.362L77.849 51.409L81.283 46.509L92.063 52.737L92.442 55.968L95.922 54.028C96.3273 53.8122 96.6576 53.4786 96.8693 53.0712C97.0811 52.6637 97.1643 52.2017 97.108 51.746V24.665C97.0475 23.4918 96.7104 22.3495 96.1242 21.3314C95.538 20.3133 94.7193 19.4483 93.735 18.807V18.807Z" fill="#EDEEF7" />
    <path class="hover" d="M90.219 20.76L58.437 2.41199C56.57 1.33399 55.049 2.21199 55.049 4.36499V31.465C55.1121 32.6385 55.452 33.7805 56.0408 34.7975C56.6296 35.8146 57.4507 36.6779 58.437 37.317L70.887 44.503L74.327 53.374L77.767 48.474L90.217 55.663C92.087 56.741 93.605 55.863 93.605 53.71V26.619C93.5409 25.445 93.2009 24.3026 92.6125 23.2846C92.0242 22.2666 91.2042 21.4017 90.219 20.76V20.76Z" fill="#F8F9FF" />
    <path class="hover" d="M81.091 29.698C81.0005 28.3841 80.6157 27.1073 79.9652 25.9621C79.3148 24.817 78.4152 23.8326 77.333 23.082C76.018 22.324 74.81 22.444 74.133 23.365C73.5482 21.7488 72.4516 20.3678 71.01 19.432C69.036 18.292 67.456 19.25 67.252 21.708C67.2018 22.296 67.2423 22.8883 67.372 23.464C67.7138 25.1734 68.3674 26.8052 69.3 28.278L74.136 36.138L79.064 33.911C79.5641 33.6582 79.9982 33.2921 80.3319 32.842C80.6656 32.3918 80.8895 31.87 80.986 31.318C81.1116 30.7877 81.1471 30.2401 81.091 29.698V29.698Z" fill="#f87171" />
  </g>
  <defs>
    <linearGradient id="paint0_linear" x1="80.1991" y1="104.188" x2="80.1991" y2="24.288" gradientUnits="userSpaceOnUse">
      <stop offset="0.21" stop-color="white" stop-opacity="0" />
      <stop offset="1" stop-color="white" stop-opacity="0.2" />
    </linearGradient>
    <clipPath id="clip0">
      <rect width="154.003" height="114.527" fill="white" />
    </clipPath>
  </defs>
</svg>
