<svg xmlns="http://www.w3.org/2000/svg" width="22.999" height="26.284" viewBox="0 0 22.999 26.284">
  <g id="Discord-Logo-White" transform="translate(-35 -20)">
    <path id="Path_24" data-name="Path 24" d="M95.541,103.9a1.464,1.464,0,1,0,1.34,1.459A1.4,1.4,0,0,0,95.541,103.9Zm4.8,0a1.464,1.464,0,1,0,1.34,1.459A1.4,1.4,0,0,0,100.337,103.9Z" transform="translate(-51.42 -72.874)" fill="currentColor" />
    <path id="Path_25" data-name="Path 25" d="M55.3,20H37.694A2.7,2.7,0,0,0,35,22.707V40.475a2.7,2.7,0,0,0,2.694,2.707H52.6l-.7-2.431,1.682,1.564,1.59,1.472L58,46.284V22.707A2.7,2.7,0,0,0,55.3,20ZM50.232,37.164s-.473-.565-.867-1.065a4.147,4.147,0,0,0,2.379-1.564,7.52,7.52,0,0,1-1.511.775,8.65,8.65,0,0,1-1.906.565,9.206,9.206,0,0,1-3.4-.013A11.032,11.032,0,0,1,42.99,35.3a7.7,7.7,0,0,1-.959-.447c-.039-.026-.079-.039-.118-.066a.181.181,0,0,1-.053-.039c-.237-.131-.368-.223-.368-.223a4.087,4.087,0,0,0,2.3,1.551c-.394.5-.881,1.091-.881,1.091a4.765,4.765,0,0,1-4.008-2A17.6,17.6,0,0,1,40.8,27.5a6.5,6.5,0,0,1,3.693-1.38l.131.158A8.866,8.866,0,0,0,41.164,28s.289-.158.775-.381a9.869,9.869,0,0,1,2.983-.828,1.3,1.3,0,0,1,.223-.026,11.12,11.12,0,0,1,2.655-.026A10.713,10.713,0,0,1,51.756,28a8.746,8.746,0,0,0-3.272-1.669l.184-.21a6.5,6.5,0,0,1,3.693,1.38,17.6,17.6,0,0,1,1.892,7.662A4.8,4.8,0,0,1,50.232,37.164Z" fill="currentColor" />
  </g>
</svg>
