<svg xmlns="http://www.w3.org/2000/svg" width="22.999" height="22.999" viewBox="0 0 22.999 22.999">
  <path id="Subtraction_1" data-name="Subtraction 1" d="M21.515,23H1.484A1.485,1.485,0,0,1,0,21.515V1.484A1.485,1.485,0,0,1,1.484,0H21.515A1.485,1.485,0,0,1,23,1.484V21.515A1.485,1.485,0,0,1,21.515,23ZM11.059,8.552v3.275h1.962v9.5h3.927v-9.5h2.62l.347-3.275H16.948l0-1.639a1.606,1.606,0,0,1,.194-.976c.182-.232.525-.336,1.113-.336H19.9V2.324h-2.62a4.256,4.256,0,0,0-3.308,1.129,4.465,4.465,0,0,0-.947,3.133V8.552Z" fill="currentColor" />
</svg>