<svg id="Group_8" data-name="Group 8" xmlns="http://www.w3.org/2000/svg" width="22.999" height="22.417" viewBox="0 0 22.999 22.417">
  <path id="Path_5" data-name="Path 5" d="M16.935,31.457a1,1,0,0,0,.6-.918v-2.7a2.575,2.575,0,0,1,.02-.3l-.02,0h-1.8a1.8,1.8,0,0,1-1.7-.9c-.35-.65-.5-1.75-1.4-2.35-.15-.1-.05-.25.25-.25a2.738,2.738,0,0,1,1.35,1,2.112,2.112,0,0,0,1.7,1,5.427,5.427,0,0,0,2.311-.277,2.382,2.382,0,0,1,1.789-1.222v-.012c-2.834-.091-4.644-1.033-5.487-2.487a30.174,30.174,0,0,0-4.338.353q-.043-.245-.075-.493a30.628,30.628,0,0,1,4.172-.357,4.081,4.081,0,0,1-.145-.424,32.31,32.31,0,0,0-4.093.048c-.01-.166-.023-.331-.025-.5a32.757,32.757,0,0,1,4.009-.055,4.916,4.916,0,0,1-.065-.771,4.3,4.3,0,0,1,.85-2.5c-.25-.85-.6-2.65.1-3.3a4.164,4.164,0,0,1,2.75,1.05,7.409,7.409,0,0,1,2.849-.55,6.989,6.989,0,0,1,2.8.55,4.164,4.164,0,0,1,2.75-1.05c.75.7.35,2.5.1,3.3a3.836,3.836,0,0,1,.8,2.5,4.987,4.987,0,0,1-.055.7,33.028,33.028,0,0,1,4.1.051c0,.168-.016.333-.025.5a32.393,32.393,0,0,0-4.179-.044,4.136,4.136,0,0,1-.162.49,31.076,31.076,0,0,1,4.274.344q-.032.249-.075.493a30.47,30.47,0,0,0-4.439-.341c-.832,1.439-2.61,2.377-5.388,2.487v.015c1.3,0,2.5,1.95,2.5,3.3v2.7a1,1,0,0,0,.6.918,11.5,11.5,0,1,0-7.209,0Z" transform="translate(-9.04 -9.04)" fill="currentColor" />
</svg>
