<svg id="linkedin-dark" xmlns="http://www.w3.org/2000/svg" width="22.999" height="22.999" viewBox="0 0 22.999 22.999">
  <path id="Path_6" data-name="Path 6" d="M0,23V0H23V23Z" transform="translate(0 0)" fill="none" />
  <g id="Group_3" data-name="Group 3" transform="translate(0 0)">
    <path id="Path_7" data-name="Path 7" d="M20.892,0H2.108A2.127,2.127,0,0,0,0,2.107V20.891A2.127,2.127,0,0,0,2.108,23H20.892A2.127,2.127,0,0,0,23,20.891V2.107A2.127,2.127,0,0,0,20.892,0ZM6.709,19.166H2.875V8.624H6.709ZM4.792,7.378a1.778,1.778,0,1,1,0-3.545,1.778,1.778,0,1,1,0,3.545ZM20.124,19.166H16.291v-5.75c0-1.535-1.056-1.917-1.34-1.917s-1.535.191-1.535,1.917v5.75H9.583V8.624h3.833v1.535A3.65,3.65,0,0,1,16.77,8.624c1.819,0,3.354,1.437,3.354,4.791Z" transform="translate(-0.001)" fill="currentColor" />
  </g>
</svg>
