<svg xmlns="http://www.w3.org/2000/svg" viewBox="0 0 18.705 26.538">
  <g id="ljtech" transform="translate(0 0)">
    <path id="outline" d="M9.351,26.538A1.861,1.861,0,0,1,8.1,26.055L.618,19.324A1.883,1.883,0,0,1,0,17.956V8.6A1.875,1.875,0,0,1,.618,7.213L8.1.482a1.861,1.861,0,0,1,2.5,0l7.481,6.727A1.879,1.879,0,0,1,18.7,8.6v9.354a1.875,1.875,0,0,1-.62,1.388L10.6,26.055A1.866,1.866,0,0,1,9.351,26.538ZM.937,7.568A1.388,1.388,0,0,0,.5,8.6v9.354a1.388,1.388,0,0,0,.46,1.034L8.422,25.7a1.388,1.388,0,0,0,1.861,0l7.481-6.732a1.393,1.393,0,0,0,.464-1.013V8.6a1.393,1.393,0,0,0-.464-1.034L10.284.837a1.388,1.388,0,0,0-1.861,0Z" transform="translate(0 0)" fill="#93C5FD" />
    <path id="fill" d="M2.765,9.576,9.628,3.4a1.493,1.493,0,0,1,2,0l6.859,6.18a1.493,1.493,0,0,1,.5,1.117v8.545a1.489,1.489,0,0,1-.495,1.113L11.63,26.526a1.493,1.493,0,0,1-2,0L2.765,20.35a1.489,1.489,0,0,1-.495-1.113V10.679a1.5,1.5,0,0,1,.495-1.1Z" transform="translate(-1.276 -1.692)" fill="#3B82F6" />
    <path id="partA" d="M10.762,17l-8.2.876a.414.414,0,0,1-.052.131l8.252,10.626Z" transform="translate(-1.411 -9.554)" fill="#2563EB" />
    <path id="partB" d="M2.977,42.021l.965.876,5.9,5.3a1.423,1.423,0,0,0,.473.285,1.467,1.467,0,0,0,.526.1V42.446L2.65,41.57a1.423,1.423,0,0,0,.327.451Z" transform="translate(-1.489 -23.363)" fill="#60A5FA" />
    <path id="partC" d="M29.212,9.57,22.353,3.39l-.069-.052A1.511,1.511,0,0,0,21.35,3V9.132l8.168.876A1.542,1.542,0,0,0,29.212,9.57Z" transform="translate(-11.999 -1.686)" fill="#60A5FA" />
    <path id="partD" d="M21.35,28.633l8.2-.876c0-.039.039-.088.052-.127L21.35,17Z" transform="translate(-11.999 -9.554)" fill="#1D4ED8" />
  </g>
</svg>
