<svg width="768" height="200" viewBox="0 0 768 200" fill="none" xmlns="http://www.w3.org/2000/svg">
  <g clip-path="url(#clip0)">
    <path d="M589.492 175C586.895 175.001 584.392 174.034 582.469 172.288L540.469 134.497C539.395 133.523 538.533 132.338 537.936 131.017C537.339 129.696 537.021 128.266 537 126.816V74.2858C537.003 72.8176 537.314 71.3663 537.911 70.0251C538.509 68.684 539.38 67.4827 540.469 66.4984L582.469 28.7066C584.391 26.9639 586.892 25.9987 589.486 25.9987C592.08 25.9987 594.581 26.9639 596.503 28.7066L638.497 66.4759C639.589 67.4631 640.462 68.668 641.061 70.0131C641.659 71.3581 641.97 72.8136 641.972 74.2858V126.805C641.968 128.275 641.656 129.728 641.057 131.07C640.457 132.412 639.584 133.614 638.492 134.598L596.503 172.288C594.582 174.029 592.084 174.995 589.492 175V175ZM542.26 68.4915C541.471 69.2337 540.845 70.1324 540.423 71.13C540 72.1277 539.79 73.2025 539.807 74.2858V126.805C539.805 127.899 540.034 128.982 540.479 129.983C540.924 130.983 541.575 131.878 542.389 132.61L584.277 170.295C585.709 171.589 587.57 172.306 589.5 172.306C591.43 172.306 593.291 171.589 594.723 170.295L636.718 132.498C637.52 131.78 638.165 130.905 638.613 129.926C639.062 128.947 639.303 127.887 639.322 126.81V74.2858C639.319 73.1896 639.086 72.1063 638.637 71.1061C638.188 70.106 637.534 69.2114 636.718 68.4803L594.729 30.6997C593.297 29.4056 591.436 28.6892 589.506 28.6892C587.576 28.6892 585.714 29.4056 584.282 30.6997L542.26 68.4915Z" fill="#93C5FD" />
    <path d="M545.358 70.2653L583.884 35.5896C585.423 34.2004 587.424 33.4315 589.497 33.4315C591.571 33.4315 593.571 34.2004 595.111 35.5896L633.613 70.2878C634.498 71.0755 635.205 72.0417 635.689 73.1227C636.173 74.2037 636.422 75.3749 636.42 76.5593V124.536C636.424 125.715 636.178 126.881 635.699 127.958C635.22 129.035 634.519 129.998 633.642 130.785L595.122 165.433C593.582 166.822 591.582 167.591 589.508 167.591C587.435 167.591 585.435 166.822 583.895 165.433L545.358 130.757C544.481 129.97 543.78 129.007 543.301 127.93C542.822 126.853 542.576 125.687 542.58 124.508V76.4582C542.59 75.2925 542.843 74.1416 543.321 73.0785C543.799 72.0154 544.493 71.0632 545.358 70.2822V70.2653Z" fill="#3B82F6" />
    <path d="M589.492 67.8062L543.461 72.7245C543.407 72.9846 543.308 73.2334 543.169 73.46L589.492 133.121V67.8062Z" fill="#2563EB" />
    <path d="M545.353 130.757L550.77 135.675L583.889 165.433C584.661 166.134 585.563 166.678 586.544 167.033C587.486 167.4 588.487 167.59 589.497 167.594V133.143L543.517 128.225C543.956 129.182 544.58 130.042 545.353 130.757V130.757Z" fill="#60A5FA" />
    <path d="M633.625 70.2653L595.122 35.5671L594.735 35.2752C593.251 34.0697 591.403 33.401 589.492 33.3774V67.8061L635.342 72.7245C634.917 71.811 634.336 70.9788 633.625 70.2653V70.2653Z" fill="#60A5FA" />
    <path d="M589.492 133.121L635.522 128.202C635.522 127.983 635.741 127.708 635.814 127.489L589.492 67.8062V133.121Z" fill="#1D4ED8" />
  </g>
  <g clip-path="url(#clip1)">
    <path d="M452.492 175C449.896 175.002 447.393 174.037 445.469 172.294L403.469 134.497C402.395 133.523 401.533 132.338 400.936 131.017C400.339 129.696 400.021 128.266 400 126.816V74.2858C400.003 72.8176 400.314 71.3663 400.911 70.0251C401.509 68.684 402.38 67.4827 403.469 66.4984L445.469 28.7066C447.391 26.9639 449.892 25.9987 452.486 25.9987C455.08 25.9987 457.581 26.9639 459.503 28.7066L501.497 66.4759C502.589 67.4631 503.462 68.668 504.061 70.0131C504.659 71.3581 504.97 72.8136 504.972 74.2858V126.805C504.968 128.275 504.656 129.728 504.057 131.07C503.457 132.412 502.584 133.614 501.492 134.598L459.503 172.294C457.581 174.033 455.083 174.997 452.492 175ZM405.26 68.4915C404.471 69.2337 403.845 70.1324 403.423 71.13C403 72.1277 402.79 73.2025 402.807 74.2858V126.805C402.805 127.899 403.034 128.982 403.479 129.983C403.924 130.983 404.575 131.878 405.389 132.61L447.277 170.295C448.709 171.589 450.57 172.306 452.5 172.306C454.43 172.306 456.291 171.589 457.723 170.295L499.718 132.498C500.52 131.78 501.165 130.905 501.613 129.926C502.062 128.947 502.303 127.887 502.322 126.81V74.2858C502.319 73.1896 502.086 72.1063 501.637 71.1061C501.188 70.106 500.534 69.2114 499.718 68.4803L457.729 30.6997C456.297 29.4056 454.436 28.6892 452.506 28.6892C450.576 28.6892 448.714 29.4056 447.282 30.6997L405.26 68.4915Z" fill="#F9A8D4" />
    <path d="M408.358 70.2653L446.884 35.5896C448.423 34.2004 450.424 33.4315 452.497 33.4315C454.571 33.4315 456.571 34.2004 458.111 35.5896L496.613 70.2878C497.498 71.0755 498.205 72.0417 498.689 73.1227C499.173 74.2037 499.422 75.3749 499.42 76.5593V124.536C499.424 125.715 499.178 126.881 498.699 127.958C498.22 129.035 497.519 129.998 496.642 130.785L458.122 165.433C456.582 166.822 454.582 167.591 452.508 167.591C450.435 167.591 448.435 166.822 446.895 165.433L408.358 130.757C407.481 129.97 406.78 129.007 406.301 127.93C405.822 126.853 405.576 125.687 405.58 124.508V76.4582C405.59 75.2925 405.843 74.1416 406.321 73.0785C406.799 72.0154 407.493 71.0632 408.358 70.2822V70.2653Z" fill="#EC4899" />
    <path d="M452.492 67.8062L406.461 72.7245C406.407 72.9846 406.308 73.2334 406.169 73.46L452.492 133.121V67.8062Z" fill="#DB2777" />
    <path d="M408.353 130.757L413.77 135.675L446.889 165.433C447.661 166.134 448.563 166.678 449.544 167.033C450.486 167.4 451.487 167.59 452.497 167.594V133.143L406.517 128.225C406.956 129.182 407.58 130.042 408.353 130.757V130.757Z" fill="#F472B6" />
    <path d="M496.625 70.2653L458.122 35.5671L457.735 35.2752C456.251 34.0697 454.403 33.401 452.492 33.3774V67.8061L498.342 72.7245C497.917 71.811 497.336 70.9788 496.625 70.2653V70.2653Z" fill="#F472B6" />
    <path d="M452.492 133.121L498.522 128.202C498.522 127.983 498.741 127.708 498.814 127.489L452.492 67.8062V133.121Z" fill="#BE185D" />
  </g>
  <g clip-path="url(#clip2)">
    <path d="M314.991 175C312.371 175.002 309.844 174.037 307.902 172.294L265.502 134.497C264.418 133.523 263.548 132.338 262.945 131.017C262.343 129.696 262.021 128.266 262 126.816V74.2858C262.003 72.8176 262.317 71.3663 262.92 70.0251C263.523 68.684 264.403 67.4827 265.502 66.4984L307.902 28.7066C309.842 26.9639 312.367 25.9987 314.986 25.9987C317.604 25.9987 320.129 26.9639 322.07 28.7066L364.464 66.4759C365.566 67.4631 366.448 68.668 367.052 70.0131C367.656 71.3581 367.969 72.8136 367.972 74.2858V126.805C367.968 128.275 367.653 129.728 367.048 131.07C366.443 132.412 365.561 133.614 364.458 134.598L322.07 172.294C320.129 174.033 317.607 174.997 314.991 175ZM267.31 68.4915C266.513 69.2337 265.882 70.1324 265.455 71.13C265.029 72.1277 264.817 73.2025 264.833 74.2858V126.805C264.832 127.899 265.063 128.982 265.513 129.983C265.962 130.983 266.619 131.878 267.44 132.61L309.727 170.295C311.173 171.589 313.052 172.306 315 172.306C316.948 172.306 318.827 171.589 320.273 170.295L362.667 132.498C363.477 131.78 364.129 130.905 364.581 129.926C365.034 128.947 365.277 127.887 365.297 126.81V74.2858C365.294 73.1896 365.058 72.1063 364.605 71.1061C364.152 70.106 363.492 69.2114 362.667 68.4803L320.279 30.6997C318.833 29.4056 316.954 28.6892 315.006 28.6892C313.057 28.6892 311.178 29.4056 309.733 30.6997L267.31 68.4915Z" fill="#D8B4FE" />
    <path d="M270.438 70.2653L309.33 35.5896C310.885 34.2004 312.904 33.4315 314.997 33.4315C317.091 33.4315 319.11 34.2004 320.664 35.5896L359.534 70.2878C360.426 71.0755 361.14 72.0417 361.629 73.1227C362.117 74.2037 362.369 75.3749 362.367 76.5593V124.536C362.371 125.715 362.122 126.881 361.639 127.958C361.156 129.035 360.448 129.998 359.562 130.785L320.675 165.433C319.121 166.822 317.102 167.591 315.009 167.591C312.915 167.591 310.896 166.822 309.342 165.433L270.438 130.757C269.552 129.97 268.844 129.007 268.361 127.93C267.878 126.853 267.629 125.687 267.633 124.508V76.4582C267.644 75.2925 267.898 74.1416 268.381 73.0785C268.864 72.0154 269.565 71.0632 270.438 70.2822V70.2653Z" fill="#8B5CF6" />
    <path d="M314.991 67.8062L268.523 72.7245C268.468 72.9846 268.368 73.2334 268.228 73.46L314.991 133.121V67.8062Z" fill="#7C3AED" />
    <path d="M270.432 130.757L275.901 135.675L309.336 165.433C310.115 166.134 311.026 166.678 312.016 167.033C312.967 167.4 313.977 167.59 314.997 167.594V133.143L268.579 128.225C269.023 129.182 269.652 130.042 270.432 130.757V130.757Z" fill="#A78BFA" />
    <path d="M359.545 70.2653L320.675 35.5671L320.284 35.2752C318.786 34.0697 316.921 33.401 314.991 33.3774V67.8061L361.279 72.7245C360.85 71.811 360.263 70.9788 359.545 70.2653V70.2653Z" fill="#A78BFA" />
    <path d="M314.991 133.121L361.46 128.202C361.46 127.983 361.681 127.708 361.755 127.489L314.991 67.8062V133.121Z" fill="#6D28D9" />
  </g>
  <g clip-path="url(#clip3)">
    <path d="M177.492 175C174.895 175.001 172.392 174.034 170.469 172.288L128.469 134.497C127.395 133.523 126.533 132.338 125.936 131.017C125.339 129.696 125.021 128.266 125 126.816V74.2858C125.003 72.8176 125.314 71.3663 125.911 70.0251C126.509 68.684 127.38 67.4827 128.469 66.4984L170.469 28.7066C172.391 26.9639 174.892 25.9987 177.486 25.9987C180.08 25.9987 182.581 26.9639 184.503 28.7066L226.497 66.4759C227.589 67.4631 228.462 68.668 229.061 70.0131C229.659 71.3581 229.97 72.8136 229.972 74.2858V126.805C229.968 128.275 229.656 129.728 229.057 131.07C228.457 132.412 227.584 133.614 226.492 134.598L184.503 172.288C182.582 174.029 180.084 174.995 177.492 175V175ZM130.26 68.4915C129.471 69.2337 128.845 70.1324 128.423 71.13C128 72.1277 127.79 73.2025 127.807 74.2858V126.805C127.805 127.899 128.034 128.982 128.479 129.983C128.924 130.983 129.575 131.878 130.389 132.61L172.277 170.295C173.709 171.589 175.57 172.306 177.5 172.306C179.43 172.306 181.291 171.589 182.723 170.295L224.718 132.498C225.52 131.78 226.165 130.905 226.613 129.926C227.062 128.947 227.303 127.887 227.322 126.81V74.2858C227.319 73.1896 227.086 72.1063 226.637 71.1061C226.188 70.106 225.534 69.2114 224.718 68.4803L182.729 30.6997C181.297 29.4056 179.436 28.6892 177.506 28.6892C175.576 28.6892 173.714 29.4056 172.282 30.6997L130.26 68.4915Z" fill="#82CFAC" />
    <path d="M133.358 70.2653L171.884 35.5896C173.423 34.2004 175.424 33.4315 177.497 33.4315C179.571 33.4315 181.571 34.2004 183.111 35.5896L221.613 70.2878C222.498 71.0755 223.205 72.0417 223.689 73.1227C224.173 74.2037 224.422 75.3749 224.42 76.5593V124.536C224.424 125.715 224.178 126.881 223.699 127.958C223.22 129.035 222.519 129.998 221.642 130.785L183.122 165.433C181.582 166.822 179.582 167.591 177.508 167.591C175.435 167.591 173.435 166.822 171.895 165.433L133.358 130.757C132.481 129.97 131.78 129.007 131.301 127.93C130.822 126.853 130.576 125.687 130.58 124.508V76.4582C130.59 75.2925 130.843 74.1416 131.321 73.0785C131.799 72.0154 132.493 71.0632 133.358 70.2822V70.2653Z" fill="#1DA96A" />
    <path d="M177.492 67.8062L131.461 72.7245C131.407 72.9846 131.308 73.2334 131.169 73.46L177.492 133.121V67.8062Z" fill="#05A05A" />
    <path d="M133.353 130.757L138.77 135.675L171.889 165.433C172.661 166.134 173.563 166.678 174.544 167.033C175.486 167.4 176.487 167.59 177.497 167.594V133.143L131.517 128.225C131.956 129.182 132.58 130.042 133.353 130.757V130.757Z" fill="#36B37A" />
    <path d="M221.625 70.2653L183.122 35.5671L182.735 35.2752C181.251 34.0697 179.403 33.401 177.492 33.3774V67.8061L223.342 72.7245C222.917 71.811 222.336 70.9788 221.625 70.2653V70.2653Z" fill="#36B37A" />
    <path d="M177.492 133.121L223.522 128.202C223.522 127.983 223.741 127.708 223.814 127.489L177.492 67.8062V133.121Z" fill="#049051" />
  </g>
</svg>
