<svg viewBox="0 0 10 10" fill="none" xmlns="http://www.w3.org/2000/svg">
  <path d="M7.70437 6.92394C8.48824 6.92394 9.25345 6.71514 10 6.29754C9.68645 7.37882 9.08175 8.26622 8.18589 8.95973C7.29003 9.65324 6.26353 10 5.10638 10C3.70287 10 2.50093 9.50037 1.50056 8.50112C0.500187 7.50186 0 6.29754 0 4.88814C0 3.73975 0.347144 2.71812 1.04143 1.82327C1.73572 0.928412 2.62038 0.320656 3.69541 0C3.27734 0.745712 3.06831 1.51007 3.06831 2.29306C3.06831 3.57569 3.5237 4.66816 4.43449 5.57047C5.34528 6.47278 6.43524 6.92394 7.70437 6.92394V6.92394Z" fill="white" />
</svg>
