<svg xmlns="http://www.w3.org/2000/svg" width="22.999" height="18.686" viewBox="0 0 22.999 18.686">
  <g id="Group_10" data-name="Group 10" transform="translate(0 -1)">
    <path id="Path_11" data-name="Path 11" d="M23,21.038a8.706,8.706,0,0,1-2.684.767,5.1,5.1,0,0,0,2.107-2.59,8.744,8.744,0,0,1-2.968,1.153,5.017,5.017,0,0,0-3.545-1.535,4.7,4.7,0,0,0-4.7,4.694,3.545,3.545,0,0,0,.1,1.056,13.109,13.109,0,0,1-9.68-4.889,4.125,4.125,0,0,0-.67,2.4,4.805,4.805,0,0,0,2.107,3.93,6.815,6.815,0,0,1-2.107-.576v.1a4.651,4.651,0,0,0,3.736,4.6,4.921,4.921,0,0,1-1.243.191,2.628,2.628,0,0,1-.865-.1A4.549,4.549,0,0,0,7,33.5a9.581,9.581,0,0,1-5.847,2.01A4.768,4.768,0,0,1,0,35.412,13.426,13.426,0,0,0,7.187,37.52,13.294,13.294,0,0,0,20.6,24.1v-.576A9.839,9.839,0,0,0,23,21.038" transform="translate(0 -17.833)" fill="currentColor" />
  </g>
</svg>
